{
  "accessors": [
    {
      "bufferView": 2,
      "componentType": 5126,
      "count": 177,
      "max": [
        1.3869808912277222,
        1.3869808912277222,
        7.391392230987549
      ],
      "min": [
        -1.3869808912277222,
        -1.3869808912277222,
        -1.0
      ],
      "type": "VEC3"
    },
    {
      "bufferView": 2,
      "byteOffset": 2124,
      "componentType": 5126,
      "count": 177,
      "max": [
        0.9884350299835205,
        0.9884350299835205,
        0.9823240637779236
      ],
      "min": [
        -0.9884350299835205,
        -0.9884350299835205,
        -0.9838199019432068
      ],
      "type": "VEC3"
    },
    {
      "bufferView": 1,
      "componentType": 5126,
      "count": 177,
      "max": [
        0.8540674448013306,
        0.978523850440979
      ],
      "min": [
        0.125,
        0.0
      ],
      "type": "VEC2"
    },
    {
      "bufferView": 0,
      "componentType": 5125,
      "count": 564,
      "type": "SCALAR"
    },
    {
      "bufferView": 2,
      "byteOffset": 4248,
      "componentType": 5126,
      "count": 171,
      "max": [
        1.0,
        1.0,
        1.0
      ],
      "min": [
        -1.0,
        -1.0,
        -1.0
      ],
      "type": "VEC3"
    },
    {
      "bufferView": 2,
      "byteOffset": 6300,
      "componentType": 5126,
      "count": 171,
      "max": [
        0.983065128326416,
        0.983065128326416,
        0.983065128326416
      ],
      "min": [
        -0.983065128326416,
        -0.983065128326416,
        -0.983065128326416
      ],
      "type": "VEC3"
    },
    {
      "bufferView": 1,
      "byteOffset": 1416,
      "componentType": 5126,
      "count": 171,
      "max": [
        0.8481746315956116,
        1.0
      ],
      "min": [
        0.125,
        0.0
      ],
      "type": "VEC2"
    },
    {
      "bufferView": 0,
      "byteOffset": 2256,
      "componentType": 5125,
      "count": 564,
      "type": "SCALAR"
    }
  ],
  "asset": {
    "extras": {
      "author": "summer57 (https://sketchfab.com/summer5717)",
      "license": "CC-BY-4.0 (http://creativecommons.org/licenses/by/4.0/)",
      "source": "https://sketchfab.com/3d-models/exclamation-mark-3d-icon-35fcb8285f134554989f822ab90ee974",
      "title": "Exclamation Mark 3D icon"
    },
    "generator": "Sketchfab-13.83.0",
    "version": "2.0"
  },
  "bufferViews": [
    {
      "buffer": 0,
      "byteLength": 4512,
      "name": "floatBufferViews",
      "target": 34963
    },
    {
      "buffer": 0,
      "byteLength": 2784,
      "byteOffset": 4512,
      "byteStride": 8,
      "name": "floatBufferViews",
      "target": 34962
    },
    {
      "buffer": 0,
      "byteLength": 8352,
      "byteOffset": 7296,
      "byteStride": 12,
      "name": "floatBufferViews",
      "target": 34962
    }
  ],
  "buffers": [
    {
      "byteLength": 15648,
      "uri": "scene.bin"
    }
  ],
  "materials": [
    {
      "doubleSided": true,
      "name": "Material",
      "pbrMetallicRoughness": {
        "baseColorFactor": [
          1.0,
          0.0,
          0.0,
          1.0
        ],
        "metallicFactor": 0.0,
        "roughnessFactor": 0.8719205424509385
      }
    }
  ],
  "meshes": [
    {
      "name": "Cube.001_Material_0",
      "primitives": [
        {
          "attributes": {
            "NORMAL": 1,
            "POSITION": 0,
            "TEXCOORD_0": 2
          },
          "indices": 3,
          "material": 0,
          "mode": 4
        }
      ]
    },
    {
      "name": "Cube_Material_0",
      "primitives": [
        {
          "attributes": {
            "NORMAL": 5,
            "POSITION": 4,
            "TEXCOORD_0": 6
          },
          "indices": 7,
          "material": 0,
          "mode": 4
        }
      ]
    }
  ],
  "nodes": [
    {
      "children": [
        1
      ],
      "matrix": [
        1.0,
        0.0,
        0.0,
        0.0,
        0.0,
        2.220446049250313e-16,
        -1.0,
        0.0,
        0.0,
        1.0,
        2.220446049250313e-16,
        0.0,
        0.0,
        0.0,
        0.0,
        1.0
      ],
      "name": "Sketchfab_model"
    },
    {
      "children": [
        2
      ],
      "matrix": [
        0.009999999776482582,
        0.0,
        0.0,
        0.0,
        0.0,
        0.0,
        0.009999999776482582,
        0.0,
        0.0,
        -0.009999999776482582,
        0.0,
        0.0,
        0.0,
        0.0,
        0.0,
        1.0
      ],
      "name": "5983cd2b1de749c4bd650b4fad945257.fbx"
    },
    {
      "children": [
        3,
        5,
        7
      ],
      "name": "RootNode"
    },
    {
      "children": [
        4
      ],
      "matrix": [
        -83.66807993142233,
        -39.0836068770666,
        -38.368288989046725,
        0.0,
        -34.906134486550556,
        92.03598650802064,
        -17.63354798276098,
        0.0,
        42.20445018954609,
        -1.360764154802932,
        -90.64729838838623,
        0.0,
        1504.8922119140625,
        702.9802856445313,
        690.1096801757813,
        1.0
      ],
      "name": "Camera"
    },
    {
      "name": "Object_4"
    },
    {
      "children": [
        6
      ],
      "matrix": [
        26.854341506958008,
        0.0,
        0.0,
        0.0,
        0.0,
        -4.375127562933857e-06,
        -26.854341506957653,
        0.0,
        0.0,
        26.854341506957653,
        -4.375127562933857e-06,
        0.0,
        0.0,
        13.30516529083252,
        0.0,
        1.0
      ],
      "name": "Cube.001"
    },
    {
      "mesh": 0,
      "name": "Cube.001_Material_0"
    },
    {
      "children": [
        8
      ],
      "matrix": [
        26.869380950927734,
        0.0,
        0.0,
        0.0,
        0.0,
        -4.37757779936308e-06,
        -26.86938095092738,
        0.0,
        0.0,
        26.86938095092738,
        -4.37757779936308e-06,
        0.0,
        0.0,
        -59.34103775024414,
        0.0,
        1.0
      ],
      "name": "Cube"
    },
    {
      "mesh": 1,
      "name": "Cube_Material_0"
    }
  ],
  "scene": 0,
  "scenes": [
    {
      "name": "Sketchfab_Scene",
      "nodes": [
        0
      ]
    }
  ]
}
